<svg xmlns="http://www.w3.org/2000/svg" xmlns:xlink="http://www.w3.org/1999/xlink" width="160" zoomAndPan="magnify" viewBox="0 0 120 30.000001" height="40" preserveAspectRatio="xMidYMid meet" version="1.2"><defs/><g id="3c02041138"><g style="fill:#ffffff;fill-opacity:1;"><g transform="translate(6.909317, 22.573709)"><path style="stroke:none" d="M 1.859375 0 C 1.585938 0 1.453125 -0.132812 1.453125 -0.40625 L 1.453125 -16.34375 C 1.453125 -16.613281 1.585938 -16.75 1.859375 -16.75 L 7.734375 -16.75 C 8.921875 -16.75 9.960938 -16.535156 10.859375 -16.109375 C 11.765625 -15.691406 12.460938 -15.097656 12.953125 -14.328125 C 13.453125 -13.566406 13.703125 -12.679688 13.703125 -11.671875 L 13.703125 -5.078125 C 13.703125 -4.066406 13.453125 -3.175781 12.953125 -2.40625 C 12.460938 -1.644531 11.765625 -1.050781 10.859375 -0.625 C 9.960938 -0.207031 8.921875 0 7.734375 0 Z M 4.828125 -3.03125 C 4.828125 -2.9375 4.875 -2.890625 4.96875 -2.890625 L 7.84375 -2.890625 C 8.582031 -2.890625 9.175781 -3.132812 9.625 -3.625 C 10.082031 -4.125 10.316406 -4.789062 10.328125 -5.625 L 10.328125 -11.125 C 10.328125 -11.957031 10.097656 -12.617188 9.640625 -13.109375 C 9.191406 -13.597656 8.585938 -13.84375 7.828125 -13.84375 L 4.96875 -13.84375 C 4.875 -13.84375 4.828125 -13.796875 4.828125 -13.703125 Z M 4.828125 -3.03125 "/></g></g><g style="fill:#ffffff;fill-opacity:1;"><g transform="translate(22.186304, 22.573709)"><path style="stroke:none" d="M 3.109375 -13.46875 C 2.503906 -13.46875 2.007812 -13.65625 1.625 -14.03125 C 1.238281 -14.40625 1.046875 -14.890625 1.046875 -15.484375 C 1.046875 -16.066406 1.238281 -16.546875 1.625 -16.921875 C 2.007812 -17.296875 2.503906 -17.484375 3.109375 -17.484375 C 3.734375 -17.484375 4.234375 -17.300781 4.609375 -16.9375 C 4.984375 -16.570312 5.171875 -16.085938 5.171875 -15.484375 C 5.171875 -14.867188 4.984375 -14.378906 4.609375 -14.015625 C 4.234375 -13.648438 3.734375 -13.46875 3.109375 -13.46875 Z M 1.84375 0 C 1.570312 0 1.4375 -0.132812 1.4375 -0.40625 L 1.4375 -11.890625 C 1.4375 -12.160156 1.570312 -12.296875 1.84375 -12.296875 L 4.40625 -12.296875 C 4.675781 -12.296875 4.8125 -12.160156 4.8125 -11.890625 L 4.8125 -0.40625 C 4.8125 -0.132812 4.675781 0 4.40625 0 Z M 1.84375 0 "/></g></g><g style="fill:#ffffff;fill-opacity:1;"><g transform="translate(28.90454, 22.573709)"><path style="stroke:none" d="M 8.75 -11.890625 C 8.75 -12.160156 8.882812 -12.296875 9.15625 -12.296875 L 11.71875 -12.296875 C 11.988281 -12.296875 12.125 -12.160156 12.125 -11.890625 L 12.125 -1.09375 C 12.125 0.988281 11.523438 2.476562 10.328125 3.375 C 9.140625 4.269531 7.601562 4.71875 5.71875 4.71875 C 5.1875 4.71875 4.585938 4.675781 3.921875 4.59375 C 3.679688 4.570312 3.5625 4.425781 3.5625 4.15625 L 3.65625 1.9375 C 3.65625 1.8125 3.695312 1.710938 3.78125 1.640625 C 3.875 1.566406 3.984375 1.546875 4.109375 1.578125 C 4.703125 1.660156 5.191406 1.703125 5.578125 1.703125 C 6.597656 1.703125 7.378906 1.476562 7.921875 1.03125 C 8.472656 0.582031 8.75 -0.132812 8.75 -1.125 C 8.75 -1.175781 8.734375 -1.203125 8.703125 -1.203125 C 8.671875 -1.210938 8.632812 -1.191406 8.59375 -1.140625 C 8 -0.503906 7.117188 -0.1875 5.953125 -0.1875 C 4.921875 -0.1875 3.96875 -0.4375 3.09375 -0.9375 C 2.226562 -1.445312 1.613281 -2.257812 1.25 -3.375 C 1.007812 -4.101562 0.890625 -5.050781 0.890625 -6.21875 C 0.890625 -7.457031 1.03125 -8.46875 1.3125 -9.25 C 1.644531 -10.226562 2.207031 -11.007812 3 -11.59375 C 3.800781 -12.1875 4.734375 -12.484375 5.796875 -12.484375 C 6.984375 -12.484375 7.914062 -12.125 8.59375 -11.40625 C 8.632812 -11.363281 8.671875 -11.347656 8.703125 -11.359375 C 8.734375 -11.378906 8.75 -11.421875 8.75 -11.484375 Z M 8.5625 -4.28125 C 8.6875 -4.757812 8.75 -5.414062 8.75 -6.25 C 8.75 -6.738281 8.734375 -7.117188 8.703125 -7.390625 C 8.671875 -7.660156 8.617188 -7.914062 8.546875 -8.15625 C 8.398438 -8.582031 8.15625 -8.925781 7.8125 -9.1875 C 7.476562 -9.457031 7.066406 -9.59375 6.578125 -9.59375 C 6.097656 -9.59375 5.691406 -9.457031 5.359375 -9.1875 C 5.023438 -8.925781 4.773438 -8.582031 4.609375 -8.15625 C 4.390625 -7.675781 4.28125 -7.03125 4.28125 -6.21875 C 4.28125 -5.320312 4.375 -4.6875 4.5625 -4.3125 C 4.707031 -3.875 4.957031 -3.523438 5.3125 -3.265625 C 5.675781 -3.003906 6.109375 -2.875 6.609375 -2.875 C 7.117188 -2.875 7.539062 -3.003906 7.875 -3.265625 C 8.207031 -3.523438 8.4375 -3.863281 8.5625 -4.28125 Z M 8.5625 -4.28125 "/></g></g><g style="fill:#ffffff;fill-opacity:1;"><g transform="translate(42.699286, 22.573709)"><path style="stroke:none" d="M 3.109375 -13.46875 C 2.503906 -13.46875 2.007812 -13.65625 1.625 -14.03125 C 1.238281 -14.40625 1.046875 -14.890625 1.046875 -15.484375 C 1.046875 -16.066406 1.238281 -16.546875 1.625 -16.921875 C 2.007812 -17.296875 2.503906 -17.484375 3.109375 -17.484375 C 3.734375 -17.484375 4.234375 -17.300781 4.609375 -16.9375 C 4.984375 -16.570312 5.171875 -16.085938 5.171875 -15.484375 C 5.171875 -14.867188 4.984375 -14.378906 4.609375 -14.015625 C 4.234375 -13.648438 3.734375 -13.46875 3.109375 -13.46875 Z M 1.84375 0 C 1.570312 0 1.4375 -0.132812 1.4375 -0.40625 L 1.4375 -11.890625 C 1.4375 -12.160156 1.570312 -12.296875 1.84375 -12.296875 L 4.40625 -12.296875 C 4.675781 -12.296875 4.8125 -12.160156 4.8125 -11.890625 L 4.8125 -0.40625 C 4.8125 -0.132812 4.675781 0 4.40625 0 Z M 1.84375 0 "/></g></g><g style="fill:#ffffff;fill-opacity:1;"><g transform="translate(49.417522, 22.573709)"><path style="stroke:none" d="M 7.34375 0.1875 C 6.101562 0.1875 5.007812 -0.0507812 4.0625 -0.53125 C 3.125 -1.019531 2.398438 -1.703125 1.890625 -2.578125 C 1.378906 -3.460938 1.125 -4.476562 1.125 -5.625 L 1.125 -11.140625 C 1.125 -12.296875 1.378906 -13.3125 1.890625 -14.1875 C 2.398438 -15.0625 3.125 -15.738281 4.0625 -16.21875 C 5.007812 -16.695312 6.101562 -16.9375 7.34375 -16.9375 C 8.570312 -16.9375 9.648438 -16.707031 10.578125 -16.25 C 11.515625 -15.800781 12.242188 -15.15625 12.765625 -14.3125 C 13.285156 -13.476562 13.546875 -12.507812 13.546875 -11.40625 C 13.546875 -11.269531 13.414062 -11.179688 13.15625 -11.140625 L 10.59375 -10.984375 L 10.5 -10.984375 C 10.28125 -10.984375 10.171875 -11.019531 10.171875 -11.09375 L 10.171875 -11.25 C 10.171875 -12.09375 9.910156 -12.769531 9.390625 -13.28125 C 8.867188 -13.789062 8.1875 -14.046875 7.34375 -14.046875 C 6.476562 -14.046875 5.785156 -13.789062 5.265625 -13.28125 C 4.753906 -12.769531 4.5 -12.09375 4.5 -11.25 L 4.5 -5.484375 C 4.5 -4.648438 4.753906 -3.976562 5.265625 -3.46875 C 5.785156 -2.957031 6.476562 -2.703125 7.34375 -2.703125 C 8.1875 -2.703125 8.867188 -2.957031 9.390625 -3.46875 C 9.910156 -3.976562 10.171875 -4.648438 10.171875 -5.484375 C 10.171875 -5.554688 10.203125 -5.617188 10.265625 -5.671875 C 10.335938 -5.734375 10.441406 -5.753906 10.578125 -5.734375 L 13.140625 -5.625 C 13.410156 -5.59375 13.546875 -5.550781 13.546875 -5.5 L 13.546875 -5.375 C 13.546875 -4.28125 13.285156 -3.3125 12.765625 -2.46875 C 12.242188 -1.625 11.515625 -0.96875 10.578125 -0.5 C 9.648438 -0.0390625 8.570312 0.1875 7.34375 0.1875 Z M 7.34375 0.1875 "/></g></g><g style="fill:#ffffff;fill-opacity:1;"><g transform="translate(64.455454, 22.573709)"><path style="stroke:none" d="M 1.703125 0 C 1.429688 0 1.296875 -0.132812 1.296875 -0.40625 L 1.296875 -16.34375 C 1.296875 -16.613281 1.429688 -16.75 1.703125 -16.75 L 4.265625 -16.75 C 4.535156 -16.75 4.671875 -16.613281 4.671875 -16.34375 L 4.671875 -0.40625 C 4.671875 -0.132812 4.535156 0 4.265625 0 Z M 1.703125 0 "/></g></g><g style="fill:#ffffff;fill-opacity:1;"><g transform="translate(70.910707, 22.573709)"><path style="stroke:none" d="M 6.703125 0.1875 C 5.347656 0.1875 4.191406 -0.160156 3.234375 -0.859375 C 2.273438 -1.554688 1.617188 -2.515625 1.265625 -3.734375 C 1.046875 -4.484375 0.9375 -5.296875 0.9375 -6.171875 C 0.9375 -7.140625 1.054688 -7.984375 1.296875 -8.703125 C 1.660156 -9.890625 2.316406 -10.816406 3.265625 -11.484375 C 4.210938 -12.148438 5.363281 -12.484375 6.71875 -12.484375 C 8.03125 -12.484375 9.148438 -12.148438 10.078125 -11.484375 C 11.015625 -10.816406 11.664062 -9.898438 12.03125 -8.734375 C 12.269531 -7.992188 12.390625 -7.15625 12.390625 -6.21875 C 12.390625 -5.382812 12.285156 -4.578125 12.078125 -3.796875 C 11.710938 -2.554688 11.054688 -1.582031 10.109375 -0.875 C 9.160156 -0.164062 8.023438 0.1875 6.703125 0.1875 Z M 6.703125 -2.703125 C 7.210938 -2.703125 7.648438 -2.859375 8.015625 -3.171875 C 8.378906 -3.492188 8.640625 -3.9375 8.796875 -4.5 C 8.929688 -4.925781 9 -5.484375 9 -6.171875 C 9 -6.835938 8.929688 -7.40625 8.796875 -7.875 C 8.640625 -8.414062 8.378906 -8.835938 8.015625 -9.140625 C 7.648438 -9.441406 7.195312 -9.59375 6.65625 -9.59375 C 6.125 -9.59375 5.675781 -9.441406 5.3125 -9.140625 C 4.945312 -8.835938 4.679688 -8.414062 4.515625 -7.875 C 4.390625 -7.40625 4.328125 -6.835938 4.328125 -6.171875 C 4.328125 -5.515625 4.390625 -4.957031 4.515625 -4.5 C 4.679688 -3.9375 4.953125 -3.492188 5.328125 -3.171875 C 5.703125 -2.859375 6.160156 -2.703125 6.703125 -2.703125 Z M 6.703125 -2.703125 "/></g></g><g style="fill:#ffffff;fill-opacity:1;"><g transform="translate(84.729362, 22.573709)"><path style="stroke:none" d="M 8.421875 -11.890625 C 8.421875 -12.160156 8.554688 -12.296875 8.828125 -12.296875 L 11.390625 -12.296875 C 11.660156 -12.296875 11.796875 -12.160156 11.796875 -11.890625 L 11.796875 -0.40625 C 11.796875 -0.132812 11.660156 0 11.390625 0 L 8.828125 0 C 8.554688 0 8.421875 -0.132812 8.421875 -0.40625 L 8.421875 -1.046875 C 8.421875 -1.109375 8.398438 -1.144531 8.359375 -1.15625 C 8.316406 -1.164062 8.28125 -1.144531 8.25 -1.09375 C 7.625 -0.25 6.644531 0.171875 5.3125 0.171875 C 4.101562 0.171875 3.101562 -0.191406 2.3125 -0.921875 C 1.53125 -1.660156 1.140625 -2.691406 1.140625 -4.015625 L 1.140625 -11.890625 C 1.140625 -12.160156 1.28125 -12.296875 1.5625 -12.296875 L 4.09375 -12.296875 C 4.363281 -12.296875 4.5 -12.160156 4.5 -11.890625 L 4.5 -4.859375 C 4.5 -4.222656 4.671875 -3.703125 5.015625 -3.296875 C 5.359375 -2.898438 5.832031 -2.703125 6.4375 -2.703125 C 6.976562 -2.703125 7.421875 -2.863281 7.765625 -3.1875 C 8.117188 -3.519531 8.335938 -3.945312 8.421875 -4.46875 Z M 8.421875 -11.890625 "/></g></g><g style="fill:#ffffff;fill-opacity:1;"><g transform="translate(98.261126, 22.573709)"><path style="stroke:none" d="M 8.65625 -16.34375 C 8.65625 -16.613281 8.789062 -16.75 9.0625 -16.75 L 11.625 -16.75 C 11.894531 -16.75 12.03125 -16.613281 12.03125 -16.34375 L 12.03125 -0.40625 C 12.03125 -0.132812 11.894531 0 11.625 0 L 9.0625 0 C 8.789062 0 8.65625 -0.132812 8.65625 -0.40625 L 8.65625 -1.046875 C 8.65625 -1.109375 8.632812 -1.144531 8.59375 -1.15625 C 8.5625 -1.164062 8.53125 -1.144531 8.5 -1.09375 C 7.84375 -0.238281 6.929688 0.1875 5.765625 0.1875 C 4.679688 0.1875 3.71875 -0.132812 2.875 -0.78125 C 2.039062 -1.425781 1.460938 -2.273438 1.140625 -3.328125 C 0.867188 -4.085938 0.734375 -5.046875 0.734375 -6.203125 C 0.734375 -7.378906 0.890625 -8.363281 1.203125 -9.15625 C 1.546875 -10.175781 2.117188 -10.988281 2.921875 -11.59375 C 3.734375 -12.207031 4.679688 -12.515625 5.765625 -12.515625 C 6.941406 -12.515625 7.851562 -12.125 8.5 -11.34375 C 8.53125 -11.289062 8.5625 -11.269531 8.59375 -11.28125 C 8.632812 -11.300781 8.65625 -11.34375 8.65625 -11.40625 Z M 8.15625 -3.78125 C 8.476562 -4.375 8.640625 -5.160156 8.640625 -6.140625 C 8.640625 -7.203125 8.472656 -8.023438 8.140625 -8.609375 C 7.734375 -9.234375 7.195312 -9.546875 6.53125 -9.546875 C 5.800781 -9.546875 5.242188 -9.242188 4.859375 -8.640625 C 4.472656 -7.992188 4.28125 -7.15625 4.28125 -6.125 C 4.28125 -5.1875 4.445312 -4.40625 4.78125 -3.78125 C 5.164062 -3.09375 5.75 -2.75 6.53125 -2.75 C 7.226562 -2.75 7.769531 -3.09375 8.15625 -3.78125 Z M 8.15625 -3.78125 "/></g></g></g></svg>